<svg xmlns="http://www.w3.org/2000/svg" width="256.001" height="256.001" fill="none"><path d="M112.162 56a15.958 15.958 0 00-9.89 3.298L64 88 25.73 59.3a15.96 15.96 0 00-10.566-3.278 15.911 15.911 0 00-6.32 1.666 15.907 15.907 0 00-5.125 4.057A15.972 15.972 0 000 72.163v111.838c0 8.837 7.163 16 16 16s16-7.163 16-16v-80l22.115 16.588a16.026 16.026 0 0016.695 1.897 15.897 15.897 0 003.075-1.897L117.334 88H240c8.837 0 16-7.163 16-16s-7.163-16-16-16h-93.393zM192 120c-1.104 0-2.184.112-3.225.325-7.29 1.492-12.775 7.944-12.775 15.676v48c0 8.837 7.164 16 16 16h48c8.837 0 16-7.163 16-16s-7.163-16-16-16h-32v-16h16c8.837 0 16-7.163 16-16s-7.163-16-16-16h-31.988z" fill="#fff"/><path fill-rule="evenodd" clip-rule="evenodd" d="M96.002 184.002c0 8.837 7.163 16 16 16 8.836 0 16-7.163 16-16v-32h16c8.836 0 16-7.163 16-16 0-8.836-7.164-16-16-16H112c-1.104 0-2.183.112-3.224.326-7.29 1.491-12.775 7.942-12.775 15.674z" fill="#fff"/></svg>